<svg width="25" height="25" viewBox="0 0 25 25" fill="none" xmlns="http://www.w3.org/2000/svg">
<path d="M2.77778 11.1111C2.01389 11.1111 1.35995 10.8391 0.815972 10.2951C0.271991 9.75116 0 9.09722 0 8.33333V2.77778C0 2.01389 0.271991 1.35995 0.815972 0.815972C1.35995 0.271991 2.01389 0 2.77778 0H8.33333C9.09722 0 9.75116 0.271991 10.2951 0.815972C10.8391 1.35995 11.1111 2.01389 11.1111 2.77778V8.33333C11.1111 9.09722 10.8391 9.75116 10.2951 10.2951C9.75116 10.8391 9.09722 11.1111 8.33333 11.1111H2.77778ZM2.77778 25C2.01389 25 1.35995 24.728 0.815972 24.184C0.271991 23.64 0 22.9861 0 22.2222V16.6667C0 15.9028 0.271991 15.2488 0.815972 14.7049C1.35995 14.1609 2.01389 13.8889 2.77778 13.8889H8.33333C9.09722 13.8889 9.75116 14.1609 10.2951 14.7049C10.8391 15.2488 11.1111 15.9028 11.1111 16.6667V22.2222C11.1111 22.9861 10.8391 23.64 10.2951 24.184C9.75116 24.728 9.09722 25 8.33333 25H2.77778ZM16.6667 11.1111C15.9028 11.1111 15.2488 10.8391 14.7049 10.2951C14.1609 9.75116 13.8889 9.09722 13.8889 8.33333V2.77778C13.8889 2.01389 14.1609 1.35995 14.7049 0.815972C15.2488 0.271991 15.9028 0 16.6667 0H22.2222C22.9861 0 23.64 0.271991 24.184 0.815972C24.728 1.35995 25 2.01389 25 2.77778V8.33333C25 9.09722 24.728 9.75116 24.184 10.2951C23.64 10.8391 22.9861 11.1111 22.2222 11.1111H16.6667ZM16.6667 25C15.9028 25 15.2488 24.728 14.7049 24.184C14.1609 23.64 13.8889 22.9861 13.8889 22.2222V16.6667C13.8889 15.9028 14.1609 15.2488 14.7049 14.7049C15.2488 14.1609 15.9028 13.8889 16.6667 13.8889H22.2222C22.9861 13.8889 23.64 14.1609 24.184 14.7049C24.728 15.2488 25 15.9028 25 16.6667V22.2222C25 22.9861 24.728 23.64 24.184 24.184C23.64 24.728 22.9861 25 22.2222 25H16.6667ZM2.77778 8.33333H8.33333V2.77778H2.77778V8.33333ZM16.6667 8.33333H22.2222V2.77778H16.6667V8.33333ZM16.6667 22.2222H22.2222V16.6667H16.6667V22.2222ZM2.77778 22.2222H8.33333V16.6667H2.77778V22.2222Z" fill="white"/>
</svg>
