<svg width="31" height="25" viewBox="0 0 31 25" fill="none" xmlns="http://www.w3.org/2000/svg">
<path d="M8.02337 19.2775V23.5694C8.02337 23.9747 7.88627 24.3145 7.61206 24.5887C7.33786 24.8629 6.99809 25 6.59275 25C6.18741 25 5.84764 24.8629 5.57344 24.5887C5.29924 24.3145 5.16214 23.9747 5.16214 23.5694V19.2775H3.73152C3.32618 19.2775 2.98641 19.1404 2.71221 18.8662C2.43801 18.592 2.30091 18.2523 2.30091 17.8469C2.30091 17.4416 2.43801 17.1018 2.71221 16.8276C2.98641 16.5534 3.32618 16.4163 3.73152 16.4163H5.16214V10.4793L2.30091 12.6609C1.9671 12.8994 1.60944 13.0007 1.22794 12.965C0.846447 12.9292 0.536481 12.7444 0.298045 12.4106C0.059609 12.0768 -0.0357654 11.7191 0.0119218 11.3376C0.059609 10.9561 0.250358 10.6462 0.584168 10.4077L13.4239 0.572246C13.6862 0.381497 13.9664 0.238436 14.2644 0.143062C14.5625 0.0476872 14.8665 0 15.1764 0C15.4864 0 15.7904 0.0476872 16.0885 0.143062C16.3865 0.238436 16.6667 0.381497 16.9289 0.572246L29.7687 10.4077C30.0787 10.6462 30.2635 10.9561 30.3231 11.3376C30.3827 11.7191 30.2933 12.0768 30.0548 12.4106C29.8164 12.7444 29.5064 12.9292 29.1249 12.965C28.7434 13.0007 28.3858 12.8994 28.052 12.6609L25.1907 10.4793V16.4163H26.6214C27.0267 16.4163 27.3665 16.5534 27.6407 16.8276C27.9149 17.1018 28.052 17.4416 28.052 17.8469C28.052 18.2523 27.9149 18.592 27.6407 18.8662C27.3665 19.1404 27.0267 19.2775 26.6214 19.2775H25.1907V23.5694C25.1907 23.9747 25.0536 24.3145 24.7794 24.5887C24.5052 24.8629 24.1655 25 23.7601 25C23.3548 25 23.015 24.8629 22.7408 24.5887C22.4666 24.3145 22.3295 23.9747 22.3295 23.5694V19.2775H16.6071V23.5694C16.6071 23.9747 16.47 24.3145 16.1958 24.5887C15.9216 24.8629 15.5818 25 15.1764 25C14.7711 25 14.4313 24.8629 14.1571 24.5887C13.8829 24.3145 13.7458 23.9747 13.7458 23.5694V19.2775H8.02337ZM8.02337 16.4163H13.7458V3.93419L8.02337 8.29757V16.4163ZM16.6071 16.4163H22.3295V8.29757L16.6071 3.93419V16.4163Z" fill="#AAC14C"/>
</svg>
