<svg width="28" height="20" viewBox="0 0 28 20" fill="none" xmlns="http://www.w3.org/2000/svg">
<path d="M21.8407 11.7976H1.79759C1.28827 11.7976 0.861346 11.6253 0.516807 11.2808C0.172269 10.9362 0 10.5093 0 10C0 9.49068 0.172269 9.06375 0.516807 8.71922C0.861346 8.37468 1.28827 8.20241 1.79759 8.20241H21.8407L16.7176 3.07927C16.3581 2.71976 16.1858 2.30032 16.2008 1.82096C16.2158 1.3416 16.388 0.922164 16.7176 0.562646C17.0771 0.203128 17.504 0.0158787 17.9984 0.000898796C18.4927 -0.0140811 18.9196 0.158188 19.2792 0.517706L27.5031 8.74169C27.6829 8.92144 27.8102 9.11618 27.8851 9.3259C27.96 9.53562 27.9975 9.76032 27.9975 10C27.9975 10.2397 27.96 10.4644 27.8851 10.6741C27.8102 10.8838 27.6829 11.0786 27.5031 11.2583L19.2792 19.4823C18.9196 19.8418 18.4927 20.0141 17.9984 19.9991C17.504 19.9841 17.0771 19.7969 16.7176 19.4374C16.388 19.0778 16.2158 18.6584 16.2008 18.179C16.1858 17.6997 16.3581 17.2802 16.7176 16.9207L21.8407 11.7976Z" fill="#AAC14C"/>
</svg>
