<svg width="65" height="66" viewBox="0 0 65 66" fill="none" xmlns="http://www.w3.org/2000/svg">
<path d="M19.518 65.0601C17.7289 65.0601 16.1973 64.4231 14.9232 63.149C13.6491 61.8749 13.012 60.3433 13.012 58.5541C13.012 56.7649 13.6491 55.2333 14.9232 53.9592C16.1973 52.6851 17.7289 52.0481 19.518 52.0481C21.3072 52.0481 22.8388 52.6851 24.1129 53.9592C25.387 55.2333 26.024 56.7649 26.024 58.5541C26.024 60.3433 25.387 61.8749 24.1129 63.149C22.8388 64.4231 21.3072 65.0601 19.518 65.0601ZM52.0481 65.0601C50.2589 65.0601 48.7273 64.4231 47.4532 63.149C46.1791 61.8749 45.5421 60.3433 45.5421 58.5541C45.5421 56.7649 46.1791 55.2333 47.4532 53.9592C48.7273 52.6851 50.2589 52.0481 52.0481 52.0481C53.8372 52.0481 55.3689 52.6851 56.643 53.9592C57.917 55.2333 58.5541 56.7649 58.5541 58.5541C58.5541 60.3433 57.917 61.8749 56.643 63.149C55.3689 64.4231 53.8372 65.0601 52.0481 65.0601ZM16.753 13.012L24.5602 29.2771H47.3312L56.277 13.012H16.753ZM13.6626 6.50601H61.6445C62.8914 6.50601 63.8402 7.06173 64.4908 8.17318C65.1414 9.28462 65.1685 10.4096 64.5722 11.5482L53.024 32.3674C52.4276 33.4517 51.6279 34.2921 50.6249 34.8885C49.6219 35.4849 48.524 35.7831 47.3312 35.7831H23.0963L19.518 42.2891H55.3011C56.2228 42.2891 56.9954 42.6008 57.6189 43.2243C58.2424 43.8478 58.5541 44.6204 58.5541 45.5421C58.5541 46.4638 58.2424 47.2364 57.6189 47.8598C56.9954 48.4833 56.2228 48.7951 55.3011 48.7951H19.518C17.0783 48.7951 15.2349 47.7243 13.9879 45.5827C12.7409 43.4412 12.6867 41.3132 13.8253 39.1987L18.2168 31.2289L6.50601 6.50601H3.25301C2.33132 6.50601 1.55873 6.19426 0.935239 5.57077C0.311746 4.94728 0 4.17469 0 3.25301C0 2.33132 0.311746 1.55873 0.935239 0.935239C1.55873 0.311746 2.33132 0 3.25301 0H8.53914C9.13552 0 9.7048 0.16265 10.247 0.487951C10.7891 0.813251 11.1958 1.27409 11.4668 1.87048L13.6626 6.50601Z" fill="#AAC14C"/>
</svg>
