<svg width="35" height="35" viewBox="0 0 35 35" fill="none" xmlns="http://www.w3.org/2000/svg">
<path d="M3.88889 15.5556C2.81944 15.5556 1.90394 15.1748 1.14236 14.4132C0.380787 13.6516 0 12.7361 0 11.6667V3.88889C0 2.81944 0.380787 1.90394 1.14236 1.14236C1.90394 0.380787 2.81944 0 3.88889 0H11.6667C12.7361 0 13.6516 0.380787 14.4132 1.14236C15.1748 1.90394 15.5556 2.81944 15.5556 3.88889V11.6667C15.5556 12.7361 15.1748 13.6516 14.4132 14.4132C13.6516 15.1748 12.7361 15.5556 11.6667 15.5556H3.88889ZM3.88889 35C2.81944 35 1.90394 34.6192 1.14236 33.8576C0.380787 33.0961 0 32.1806 0 31.1111V23.3333C0 22.2639 0.380787 21.3484 1.14236 20.5868C1.90394 19.8252 2.81944 19.4444 3.88889 19.4444H11.6667C12.7361 19.4444 13.6516 19.8252 14.4132 20.5868C15.1748 21.3484 15.5556 22.2639 15.5556 23.3333V31.1111C15.5556 32.1806 15.1748 33.0961 14.4132 33.8576C13.6516 34.6192 12.7361 35 11.6667 35H3.88889ZM23.3333 15.5556C22.2639 15.5556 21.3484 15.1748 20.5868 14.4132C19.8252 13.6516 19.4444 12.7361 19.4444 11.6667V3.88889C19.4444 2.81944 19.8252 1.90394 20.5868 1.14236C21.3484 0.380787 22.2639 0 23.3333 0H31.1111C32.1806 0 33.0961 0.380787 33.8576 1.14236C34.6192 1.90394 35 2.81944 35 3.88889V11.6667C35 12.7361 34.6192 13.6516 33.8576 14.4132C33.0961 15.1748 32.1806 15.5556 31.1111 15.5556H23.3333ZM23.3333 35C22.2639 35 21.3484 34.6192 20.5868 33.8576C19.8252 33.0961 19.4444 32.1806 19.4444 31.1111V23.3333C19.4444 22.2639 19.8252 21.3484 20.5868 20.5868C21.3484 19.8252 22.2639 19.4444 23.3333 19.4444H31.1111C32.1806 19.4444 33.0961 19.8252 33.8576 20.5868C34.6192 21.3484 35 22.2639 35 23.3333V31.1111C35 32.1806 34.6192 33.0961 33.8576 33.8576C33.0961 34.6192 32.1806 35 31.1111 35H23.3333ZM3.88889 11.6667H11.6667V3.88889H3.88889V11.6667ZM23.3333 11.6667H31.1111V3.88889H23.3333V11.6667ZM23.3333 31.1111H31.1111V23.3333H23.3333V31.1111ZM3.88889 31.1111H11.6667V23.3333H3.88889V31.1111Z" fill="#444444"/>
</svg>
