<svg width="70" height="60" viewBox="0 0 70 60" fill="none" xmlns="http://www.w3.org/2000/svg">
<path d="M6.66667 53.3333C4.83333 53.3333 3.26389 52.6806 1.95833 51.375C0.652778 50.0694 0 48.5 0 46.6667V6.66667C0 4.83333 0.652778 3.26389 1.95833 1.95833C3.26389 0.652778 4.83333 0 6.66667 0H23.9167C24.8056 0 25.6528 0.166667 26.4583 0.5C27.2639 0.833333 27.9722 1.30556 28.5833 1.91667L33.3333 6.66667H60C61.8333 6.66667 63.4028 7.31944 64.7083 8.625C66.0139 9.93056 66.6667 11.5 66.6667 13.3333V20C66.6667 20.9444 66.3472 21.7361 65.7083 22.375C65.0694 23.0139 64.2778 23.3333 63.3333 23.3333C62.3889 23.3333 61.5972 23.0139 60.9583 22.375C60.3194 21.7361 60 20.9444 60 20V13.3333H30.5833L23.9167 6.66667H6.66667V46.6667H30C30.9444 46.6667 31.7361 46.9861 32.375 47.625C33.0139 48.2639 33.3333 49.0556 33.3333 50C33.3333 50.9444 33.0139 51.7361 32.375 52.375C31.7361 53.0139 30.9444 53.3333 30 53.3333H6.66667ZM40 56.6667V51.1667C40 50.7222 40.0833 50.2917 40.25 49.875C40.4167 49.4583 40.6667 49.0833 41 48.75L58.4167 31.4167C58.9167 30.9167 59.4722 30.5556 60.0833 30.3333C60.6944 30.1111 61.3056 30 61.9167 30C62.5833 30 63.2222 30.125 63.8333 30.375C64.4444 30.625 65 31 65.5 31.5L68.5833 34.5833C69.0278 35.0833 69.375 35.6389 69.625 36.25C69.875 36.8611 70 37.4722 70 38.0833C70 38.6944 69.8889 39.3194 69.6667 39.9583C69.4444 40.5972 69.0833 41.1667 68.5833 41.6667L51.25 59C50.9167 59.3333 50.5417 59.5833 50.125 59.75C49.7083 59.9167 49.2778 60 48.8333 60H43.3333C42.3889 60 41.5972 59.6806 40.9583 59.0417C40.3194 58.4028 40 57.6111 40 56.6667ZM45 55H48.1667L58.25 44.8333L56.75 43.25L55.1667 41.75L45 51.8333V55ZM56.75 43.25L55.1667 41.75L58.25 44.8333L56.75 43.25Z" fill="#AAC14C"/>
</svg>
