<svg width="60" height="66" viewBox="0 0 60 66" fill="none" xmlns="http://www.w3.org/2000/svg">
<path d="M1.72067 1.84697C0.968499 2.61572 0.533203 3.81259 0.533203 5.36259V60.6501C0.533203 62.2001 0.968499 63.397 1.72067 64.1657L1.90631 64.3345L33.6383 33.3657V32.6345L1.90631 1.66572L1.72067 1.84697Z" fill="url(#paint0_linear_790_9)"/>
<path d="M44.2023 43.6934L33.6367 33.3652V32.634L44.2151 22.3059L44.452 22.4402L56.9796 29.3996C60.5548 31.3746 60.5548 34.6246 56.9796 36.6121L44.452 43.559L44.2023 43.6934Z" fill="url(#paint1_linear_790_9)"/>
<path d="M44.4535 43.5587L33.6383 32.9993L1.7207 64.1649C2.90817 65.3837 4.84461 65.5306 7.0467 64.3118L44.4535 43.5587Z" fill="url(#paint2_linear_790_9)"/>
<path d="M44.4535 22.4406L7.0467 1.68751C4.84461 0.48126 2.90817 0.628129 1.7207 1.84688L33.6383 33L44.4535 22.4406Z" fill="url(#paint3_linear_790_9)"/>
<defs>
<linearGradient id="paint0_linear_790_9" x1="30.8209" y1="61.2258" x2="-11.1231" y2="18.2655" gradientUnits="userSpaceOnUse">
<stop stop-color="#00A0FF"/>
<stop offset="0.0066" stop-color="#00A1FF"/>
<stop offset="0.2601" stop-color="#00BEFF"/>
<stop offset="0.5122" stop-color="#00D2FF"/>
<stop offset="0.7604" stop-color="#00DFFF"/>
<stop offset="1" stop-color="#00E3FF"/>
</linearGradient>
<linearGradient id="paint1_linear_790_9" x1="61.6351" y1="32.9961" x2="-0.322939" y2="32.9961" gradientUnits="userSpaceOnUse">
<stop stop-color="#FFE000"/>
<stop offset="0.4087" stop-color="#FFBD00"/>
<stop offset="0.7754" stop-color="#FFA500"/>
<stop offset="1" stop-color="#FF9C00"/>
</linearGradient>
<linearGradient id="paint2_linear_790_9" x1="38.5725" y1="27.2591" x2="-18.3069" y2="-30.9986" gradientUnits="userSpaceOnUse">
<stop stop-color="#FF3A44"/>
<stop offset="1" stop-color="#C31162"/>
</linearGradient>
<linearGradient id="paint3_linear_790_9" x1="-6.31362" y1="82.5595" x2="19.0856" y2="56.5451" gradientUnits="userSpaceOnUse">
<stop stop-color="#32A071"/>
<stop offset="0.0685" stop-color="#2DA771"/>
<stop offset="0.4762" stop-color="#15CF74"/>
<stop offset="0.8009" stop-color="#06E775"/>
<stop offset="1" stop-color="#00F076"/>
</linearGradient>
</defs>
</svg>
