<svg width="206" height="50" viewBox="0 0 206 50" fill="none" xmlns="http://www.w3.org/2000/svg">
<path d="M22.3727 0.111796C18.9757 0.576062 16.2195 1.42533 13.3459 2.89739C11.9358 3.6221 10.4082 4.55064 10.4082 4.68652C10.4082 4.73181 10.8569 5.07152 11.391 5.4452C12.6088 6.28314 14.318 8.00432 15.1513 9.23859C15.8136 10.2011 17.0314 12.6583 17.0314 12.998C17.0314 13.1113 17.0848 13.2018 17.1382 13.2018C17.2023 13.2018 17.2451 13.1339 17.2451 13.0546C17.2451 12.8168 18.121 11.0504 18.6338 10.2464C19.2534 9.28389 20.6528 7.81182 21.5181 7.21167C23.6653 5.73961 26.0475 5.10549 28.4298 5.38858C29.7651 5.54711 30.4808 5.73961 31.9871 6.37373C32.9165 6.77006 33.3545 6.89461 33.8031 6.89461C36.3669 6.89461 37.1681 3.71269 34.9889 2.2293C33.9954 1.54989 31.0684 0.587386 28.9425 0.225032C27.4683 -0.012763 23.8042 -0.0807047 22.3727 0.111796Z" fill="#AAC14C"/>
<path d="M0.975321 4.5619C0.270269 8.72898 0.548016 13.4849 1.65901 16.463C2.50293 18.7164 3.36823 20.1431 4.84243 21.6945C6.9469 23.9252 9.30776 25.1029 12.3203 25.4199C12.9292 25.4879 13.709 25.5445 14.0615 25.5445C14.6277 25.5445 14.6918 25.5671 14.6277 25.737C13.6983 28.1715 13.2924 30.4589 13.2924 33.2445C13.2924 36.3245 13.8692 38.9063 15.1725 41.6466C15.6105 42.5638 15.6319 42.5638 14.2965 41.7938C11.8289 40.367 9.73506 38.3061 8.14335 35.7357C6.41277 32.9501 5.32314 29.6776 5.08813 26.5636L5.01335 25.6124L4.37239 25.1029C3.0157 24.0271 1.38126 22.0568 0.569382 20.5055L0.216855 19.8374L0.110029 20.279C-0.0502099 20.9698 -0.0288446 26.439 0.131395 27.5827C1.25307 35.2261 4.87448 41.4541 10.4615 45.3154C13.6556 47.5122 17.1488 48.8484 21.0266 49.3353C22.6183 49.5391 26.3786 49.4032 27.9276 49.1088C32.3502 48.2369 35.9929 46.4704 39.155 43.6735C41.0138 42.0316 43.3853 38.9742 44.3254 36.9813C45.2334 35.0789 43.8874 32.8822 42.0286 33.1992C41.2274 33.3351 40.6505 33.856 40.1057 34.9544C38.6315 37.9438 36.5484 40.1066 33.5252 41.8165C32.4463 42.4279 30.3952 43.1413 29.2308 43.3225C27.8848 43.5376 25.5026 43.4131 24.5625 43.096C21.6782 42.1222 19.6165 39.6876 18.826 36.3358C18.6337 35.5205 18.591 35.011 18.5803 33.5276C18.5803 30.9911 18.9435 29.3152 19.969 27.1185C22.0735 22.6003 26.1436 19.192 31.2498 17.6746C33.6962 16.9386 34.0594 16.9159 40.6399 16.8593C43.9622 16.8367 46.7824 16.7914 46.9212 16.7687L47.1563 16.7121V14.1077V11.5033L46.8999 11.4353C46.761 11.4013 44.0583 11.39 40.8962 11.424C36.2279 11.458 34.9033 11.5033 33.9098 11.6618C29.3911 12.3638 25.6415 13.8019 22.4581 16.0327C21.0693 17.0178 20.1399 17.8331 19.0076 19.0561L18.0355 20.1092H16.6467H15.2687L15.3114 18.8409C15.5144 12.0694 11.0704 6.74735 3.03707 4.15425C2.41747 3.95043 1.77652 3.73528 1.6056 3.67867C1.43467 3.62205 1.26375 3.57675 1.22102 3.57675C1.16761 3.57675 1.06078 4.01837 0.975321 4.5619ZM5.91069 10.4388C7.88697 11.5938 9.7137 13.7566 10.4508 15.8175C10.782 16.7461 11.049 18.1162 11.049 18.8636C11.049 19.5543 11.0704 19.5543 9.7137 18.8636C7.55581 17.7652 6.09229 15.7496 5.42997 12.9866C5.16291 11.8769 4.97062 10.0312 5.12017 10.0312C5.17359 10.0312 5.52611 10.2124 5.91069 10.4388Z" fill="#AAC14C"/>
<path d="M35.6198 22.0001C33.7824 22.1247 31.7207 22.5776 30.3213 23.1552C27.0097 24.514 24.1895 27.2996 22.5443 30.8212C21.9782 32.0328 21.3586 33.9125 21.4868 34.0371C21.7004 34.2522 23.9972 34.909 25.4714 35.1808C26.6465 35.4073 29.5735 35.3733 30.7379 35.1355C34.3273 34.3768 37.1261 32.3612 39.8929 28.5452C40.3843 27.8544 40.8436 27.2656 40.9077 27.2203C40.9612 27.175 42.3713 27.1297 44.0164 27.1297C46.5482 27.1297 47.0396 27.1071 47.0823 26.9599C47.1143 26.8693 47.1571 25.7709 47.1678 24.514C47.1784 22.4191 47.1678 22.204 46.9861 22.0681C46.8366 21.9549 45.7363 21.9209 41.4526 21.9435C38.5042 21.9549 35.8869 21.9775 35.6198 22.0001ZM36.154 26.6655C36.154 26.8806 34.3807 28.6471 33.6863 29.1227C31.945 30.323 29.9046 30.8439 28.0886 30.5494L27.4476 30.4475L28.3664 29.4963C29.8085 27.979 31.3682 27.1184 33.3338 26.7447C34.3059 26.5635 36.154 26.5069 36.154 26.6655Z" fill="#AAC14C"/>
<path d="M85.0317 39.7526C82.5783 39.7526 80.4183 39.2726 78.5517 38.3126C76.7117 37.3526 75.285 36.046 74.2717 34.3926C73.2583 32.7126 72.7517 30.8059 72.7517 28.6726C72.7517 26.5126 73.245 24.6059 74.2317 22.9526C75.245 21.2726 76.6183 19.9659 78.3517 19.0326C80.085 18.0726 82.045 17.5926 84.2317 17.5926C86.3383 17.5926 88.2317 18.046 89.9117 18.9526C91.6183 19.8326 92.965 21.1126 93.9517 22.7926C94.9383 24.446 95.4317 26.4326 95.4317 28.7526C95.4317 28.9926 95.4183 29.2726 95.3917 29.5926C95.365 29.886 95.3383 30.166 95.3117 30.4326H77.8317V26.7926H92.0317L89.6317 27.8726C89.6317 26.7526 89.405 25.7793 88.9517 24.9526C88.4983 24.126 87.8717 23.4859 87.0717 23.0326C86.2717 22.5526 85.3383 22.3126 84.2717 22.3126C83.205 22.3126 82.2583 22.5526 81.4317 23.0326C80.6317 23.4859 80.005 24.1393 79.5517 24.9926C79.0983 25.8193 78.8717 26.806 78.8717 27.9526V28.9126C78.8717 30.086 79.125 31.126 79.6317 32.0326C80.165 32.9126 80.8983 33.5926 81.8317 34.0726C82.7917 34.526 83.9117 34.7526 85.1917 34.7526C86.3383 34.7526 87.3383 34.5793 88.1917 34.2326C89.0717 33.886 89.8717 33.366 90.5917 32.6726L93.9117 36.2726C92.925 37.3926 91.685 38.2593 90.1917 38.8726C88.6983 39.4593 86.9783 39.7526 85.0317 39.7526ZM106.026 24.0326H119.466V29.2326H106.026V24.0326ZM106.506 39.4326H100.026V11.4326H121.186V16.6326H106.506V39.4326ZM137.747 39.4326V35.2326L137.347 34.3126V26.7926C137.347 25.4593 136.934 24.4193 136.107 23.6726C135.307 22.9259 134.067 22.5526 132.387 22.5526C131.24 22.5526 130.107 22.7393 128.987 23.1126C127.894 23.4593 126.96 23.9393 126.187 24.5526L123.947 20.1926C125.12 19.3659 126.534 18.7259 128.187 18.2726C129.84 17.8193 131.52 17.5926 133.227 17.5926C136.507 17.5926 139.054 18.3659 140.867 19.9126C142.68 21.4593 143.587 23.8726 143.587 27.1526V39.4326H137.747ZM131.187 39.7526C129.507 39.7526 128.067 39.4726 126.867 38.9126C125.667 38.326 124.747 37.5393 124.107 36.5526C123.467 35.566 123.147 34.4593 123.147 33.2326C123.147 31.9526 123.454 30.8326 124.067 29.8726C124.707 28.9126 125.707 28.166 127.067 27.6326C128.427 27.0726 130.2 26.7926 132.387 26.7926H138.107V30.4326H133.067C131.6 30.4326 130.587 30.6726 130.027 31.1526C129.494 31.6326 129.227 32.2326 129.227 32.9526C129.227 33.7526 129.534 34.3926 130.147 34.8726C130.787 35.326 131.654 35.5526 132.747 35.5526C133.787 35.5526 134.72 35.3126 135.547 34.8326C136.374 34.326 136.974 33.5926 137.347 32.6326L138.307 35.5126C137.854 36.8993 137.027 37.9526 135.827 38.6726C134.627 39.3926 133.08 39.7526 131.187 39.7526ZM149.234 39.4326V17.9126H155.194V23.9926L154.354 22.2326C154.994 20.7126 156.021 19.5659 157.434 18.7926C158.848 17.9926 160.568 17.5926 162.594 17.5926V23.3526C162.328 23.3259 162.088 23.3126 161.874 23.3126C161.661 23.2859 161.434 23.2726 161.194 23.2726C159.488 23.2726 158.101 23.7659 157.034 24.7526C155.994 25.7126 155.474 27.2193 155.474 29.2726V39.4326H149.234ZM193.865 17.5926C195.571 17.5926 197.078 17.9393 198.385 18.6326C199.718 19.2993 200.758 20.3393 201.505 21.7526C202.278 23.1393 202.665 24.9259 202.665 27.1126V39.4326H196.425V28.0726C196.425 26.3393 196.065 25.0593 195.345 24.2326C194.625 23.4059 193.611 22.9926 192.305 22.9926C191.398 22.9926 190.585 23.206 189.865 23.6326C189.145 24.0326 188.585 24.6459 188.185 25.4726C187.785 26.2993 187.585 27.3526 187.585 28.6326V39.4326H181.345V28.0726C181.345 26.3393 180.985 25.0593 180.265 24.2326C179.571 23.4059 178.571 22.9926 177.265 22.9926C176.358 22.9926 175.545 23.206 174.825 23.6326C174.105 24.0326 173.545 24.6459 173.145 25.4726C172.745 26.2993 172.545 27.3526 172.545 28.6326V39.4326H166.305V17.9126H172.265V23.7926L171.145 22.0726C171.891 20.6059 172.945 19.4993 174.305 18.7526C175.691 17.9793 177.265 17.5926 179.025 17.5926C180.998 17.5926 182.718 18.0993 184.185 19.1126C185.678 20.0993 186.665 21.6193 187.145 23.6726L184.945 23.0726C185.665 21.3926 186.811 20.0593 188.385 19.0726C189.985 18.086 191.811 17.5926 193.865 17.5926Z" fill="#AAC14C"/>
</svg>
