<svg width="600" height="600" viewBox="0 0 600 600" fill="none" xmlns="http://www.w3.org/2000/svg">
<g clip-path="url(#clip0_1744_277)">
<rect x="100" y="100" width="400" height="400" rx="20" fill="#703A3C"/>
<circle cx="230" cy="177" r="25" fill="white"/>
<path d="M175 406V255.5C175 255.5 172 221.419 190 221C208 220.581 209 241 210 253C211 265 225 266.5 231 266.5C237 266.5 324 265.5 337 264C350 262.5 348 243.5 348 243.5C346.68 234.483 337.817 233.568 331.5 227C323.068 218.234 321.464 209.265 310.5 204C302.974 200.386 296.036 205.193 289.5 200C282.573 194.496 280.925 187.847 281 179C281.073 170.334 281.5 164 289.5 158.5C297.5 153 306 155 328 153C350 151 371 144 385 145.5C399 147 464 179.5 462 182.5C460 185.5 455.964 186.661 451.5 187.5C443.486 189.006 439 182.5 431.5 181.5C424 180.5 422.5 183.5 421.5 185.5C420.5 187.5 420.152 191.808 421.5 196.5C422.848 201.192 461 220.5 461 224.5C461 228.5 453.5 230 449.5 231C445.5 232 433.555 220.054 424.5 224.5C415.796 228.773 416 247.5 416 247.5C416 247.5 414 439 414 445C414 451 404.833 454.318 397.5 454C389.424 453.65 382 446 381 441.5C380 437 381 418.5 380 406C379 393.5 373.815 387 364.5 387C354 387 348.5 401 348.5 406C348.5 411 349.5 440.5 348.5 445C347.5 449.5 339 454 333.5 454C324.578 454 318 452.5 316.5 445C315 437.5 314 419.5 314 406C314 392.5 304.5 386 296 386C283.8 386 277 392.5 277 404.5C277 416.5 278.5 431 277 441.5C275.5 452 264.838 453.821 257.5 454C249.817 454.187 243.26 448.845 241 441.5C239 435 240.857 412 240 406C239.143 400 243.5 387 225.5 386C207.5 385 210.5 402 209.5 406C208.5 410 210.394 440 208.5 444C206.606 448 199.354 454.281 191.5 454C184.165 453.738 177.498 448.5 176 445C174.502 441.5 175 421.23 175 406Z" fill="white"/>
<circle cx="348" cy="165" r="5" fill="#5A3E3F"/>
</g>
<defs>
<clipPath id="clip0_1744_277">
<rect width="600" height="600" fill="white"/>
</clipPath>
</defs>
</svg>
