<svg width="51" height="25" viewBox="0 0 51 25" fill="none" xmlns="http://www.w3.org/2000/svg">
<path d="M2.42415 25C1.83388 25 1.33908 24.8003 0.939779 24.401C0.540473 24.0017 0.34082 23.5069 0.34082 22.9167V21.7188C0.34082 20.2257 1.10471 19.0104 2.63249 18.0729C4.16026 17.1354 6.17415 16.6667 8.67415 16.6667C9.12554 16.6667 9.55957 16.6753 9.97624 16.6927C10.3929 16.7101 10.7922 16.7535 11.1742 16.8229C10.688 17.5521 10.3235 18.316 10.0804 19.1146C9.83735 19.9132 9.71582 20.7465 9.71582 21.6146V25H2.42415ZM14.9242 25C14.3339 25 13.8391 24.8003 13.4398 24.401C13.0405 24.0017 12.8408 23.5069 12.8408 22.9167V21.6146C12.8408 20.5035 13.1446 19.4878 13.7523 18.5677C14.3599 17.6476 15.2193 16.8403 16.3304 16.1458C17.4415 15.4514 18.7696 14.9306 20.3148 14.5833C21.8599 14.2361 23.5353 14.0625 25.3408 14.0625C27.1811 14.0625 28.8738 14.2361 30.4189 14.5833C31.9641 14.9306 33.2922 15.4514 34.4033 16.1458C35.5144 16.8403 36.3651 17.6476 36.9554 18.5677C37.5457 19.4878 37.8408 20.5035 37.8408 21.6146V22.9167C37.8408 23.5069 37.6412 24.0017 37.2419 24.401C36.8426 24.8003 36.3478 25 35.7575 25H14.9242ZM40.9658 25V21.6146C40.9658 20.7118 40.853 19.8611 40.6273 19.0625C40.4016 18.2639 40.063 17.5174 39.6117 16.8229C39.9936 16.7535 40.3842 16.7101 40.7835 16.6927C41.1828 16.6753 41.5908 16.6667 42.0075 16.6667C44.5075 16.6667 46.5214 17.1267 48.0492 18.0469C49.5769 18.967 50.3408 20.191 50.3408 21.7188V22.9167C50.3408 23.5069 50.1412 24.0017 49.7419 24.401C49.3426 24.8003 48.8478 25 48.2575 25H40.9658ZM17.2679 20.8333H33.4658C33.1186 20.1389 32.1551 19.5312 30.5752 19.0104C28.9953 18.4896 27.2505 18.2292 25.3408 18.2292C23.4311 18.2292 21.6863 18.4896 20.1064 19.0104C18.5266 19.5312 17.5804 20.1389 17.2679 20.8333ZM8.67415 14.5833C7.52832 14.5833 6.54742 14.1753 5.73145 13.3594C4.91547 12.5434 4.50749 11.5625 4.50749 10.4167C4.50749 9.23611 4.91547 8.24653 5.73145 7.44792C6.54742 6.64931 7.52832 6.25 8.67415 6.25C9.85471 6.25 10.8443 6.64931 11.6429 7.44792C12.4415 8.24653 12.8408 9.23611 12.8408 10.4167C12.8408 11.5625 12.4415 12.5434 11.6429 13.3594C10.8443 14.1753 9.85471 14.5833 8.67415 14.5833ZM42.0075 14.5833C40.8617 14.5833 39.8807 14.1753 39.0648 13.3594C38.2488 12.5434 37.8408 11.5625 37.8408 10.4167C37.8408 9.23611 38.2488 8.24653 39.0648 7.44792C39.8807 6.64931 40.8617 6.25 42.0075 6.25C43.188 6.25 44.1776 6.64931 44.9762 7.44792C45.7748 8.24653 46.1742 9.23611 46.1742 10.4167C46.1742 11.5625 45.7748 12.5434 44.9762 13.3594C44.1776 14.1753 43.188 14.5833 42.0075 14.5833ZM25.3408 12.5C23.6047 12.5 22.129 11.8924 20.9137 10.6771C19.6985 9.46181 19.0908 7.98611 19.0908 6.25C19.0908 4.47917 19.6985 2.99479 20.9137 1.79688C22.129 0.598958 23.6047 0 25.3408 0C27.1117 0 28.596 0.598958 29.7939 1.79688C30.9919 2.99479 31.5908 4.47917 31.5908 6.25C31.5908 7.98611 30.9919 9.46181 29.7939 10.6771C28.596 11.8924 27.1117 12.5 25.3408 12.5ZM25.3408 8.33333C25.9311 8.33333 26.4259 8.13368 26.8252 7.73438C27.2245 7.33507 27.4242 6.84028 27.4242 6.25C27.4242 5.65972 27.2245 5.16493 26.8252 4.76562C26.4259 4.36632 25.9311 4.16667 25.3408 4.16667C24.7505 4.16667 24.2558 4.36632 23.8564 4.76562C23.4571 5.16493 23.2575 5.65972 23.2575 6.25C23.2575 6.84028 23.4571 7.33507 23.8564 7.73438C24.2558 8.13368 24.7505 8.33333 25.3408 8.33333Z" fill="#AAC14C"/>
</svg>
