<svg width="61" height="75" viewBox="0 0 61 75" fill="none" xmlns="http://www.w3.org/2000/svg">
<path d="M24.6835 41.2025V46.8987C24.6835 47.9747 25.0475 48.8766 25.7753 49.6044C26.5032 50.3323 27.4051 50.6962 28.481 50.6962H32.2785C33.3544 50.6962 34.2563 50.3323 34.9842 49.6044C35.712 48.8766 36.0759 47.9747 36.0759 46.8987V41.2025H41.7722C42.8481 41.2025 43.75 40.8386 44.4778 40.1108C45.2057 39.3829 45.5696 38.481 45.5696 37.4051V33.6076C45.5696 32.5316 45.2057 31.6297 44.4778 30.9019C43.75 30.174 42.8481 29.8101 41.7722 29.8101H36.0759V24.1139C36.0759 23.038 35.712 22.1361 34.9842 21.4082C34.2563 20.6804 33.3544 20.3165 32.2785 20.3165H28.481C27.4051 20.3165 26.5032 20.6804 25.7753 21.4082C25.0475 22.1361 24.6835 23.038 24.6835 24.1139V29.8101H18.9873C17.9114 29.8101 17.0095 30.174 16.2816 30.9019C15.5538 31.6297 15.1899 32.5316 15.1899 33.6076V37.4051C15.1899 38.481 15.5538 39.3829 16.2816 40.1108C17.0095 40.8386 17.9114 41.2025 18.9873 41.2025H24.6835ZM30.3797 75C29.9367 75 29.5253 74.9684 29.1456 74.9051C28.7658 74.8418 28.3861 74.7468 28.0063 74.6203C19.462 71.7721 12.6582 66.5032 7.59494 58.8133C2.53165 51.1234 0 42.8481 0 33.9873V16.0443C0 14.462 0.458861 13.038 1.37658 11.7722C2.2943 10.5063 3.48101 9.58861 4.93671 9.01899L27.7215 0.474684C28.6076 0.158228 29.4937 0 30.3797 0C31.2658 0 32.1519 0.158228 33.038 0.474684L55.8228 9.01899C57.2785 9.58861 58.4652 10.5063 59.3829 11.7722C60.3006 13.038 60.7595 14.462 60.7595 16.0443V33.9873C60.7595 42.8481 58.2278 51.1234 53.1646 58.8133C48.1013 66.5032 41.2975 71.7721 32.7532 74.6203C32.3734 74.7468 31.9937 74.8418 31.6139 74.9051C31.2342 74.9684 30.8228 75 30.3797 75ZM30.3797 67.4051C36.962 65.3165 42.4051 61.1392 46.7089 54.8734C51.0127 48.6076 53.1646 41.6456 53.1646 33.9873V16.0443L30.3797 7.5L7.59494 16.0443V33.9873C7.59494 41.6456 9.74684 48.6076 14.0506 54.8734C18.3544 61.1392 23.7975 65.3165 30.3797 67.4051Z" fill="#AAC14C"/>
</svg>
